<svg width="133" height="127" viewBox="0 0 133 127" fill="none" xmlns="http://www.w3.org/2000/svg">
<g filter="url(#filter0_d)">
<path d="M123 59.5C123 29.9524 97.7046 6 66.5 6C35.2963 6 10 29.9524 10 59.5C10 89.0476 35.2963 113 66.5 113C97.7046 113 123 89.0476 123 59.5Z" fill="#29DE92"/>
</g>
<path d="M98.2474 11.9775C106.534 21.5393 111.487 33.6437 111.487 46.812C111.487 77.7366 84.1819 102.807 50.5 102.807C36.9204 102.807 19.0274 97.2765 8.8916 90.3865C20.0652 103.28 42.652 113 61.992 113C95.6748 113 122.979 87.9306 122.979 57.0051C122.979 38.5481 113.252 22.1784 98.2474 11.9775Z" fill="#29DE92"/>
<path d="M57.4293 82.7703C61.0481 83.7358 64.7665 81.9748 66.3766 78.7602L51.6943 74.843C51.4749 78.4286 53.8109 81.8049 57.4293 82.7703Z" fill="white"/>
<path d="M77.8664 62.632C77.8583 62.6298 77.8498 62.6295 77.8418 62.6274C70.1311 60.5702 65.5362 52.6483 67.6027 44.9689C68.1709 42.8578 69.1956 40.9923 70.5277 39.4243C70.0991 39.2655 69.6604 39.1207 69.2089 39.0002C61.4844 36.9393 53.5443 41.5036 51.4744 49.1954L49.9818 54.7422C48.9222 58.6795 46.1897 61.9339 42.4619 63.6815C41.217 64.2728 40.398 65.5255 40.4013 66.9617C40.4057 68.6324 41.6845 70.04 43.3072 70.4729L75.8266 79.1491C77.529 79.6032 79.4292 78.933 80.2216 77.364C80.8353 76.1502 80.7212 74.7441 79.9455 73.6396C77.6928 70.4393 76.9713 66.4274 77.8664 62.632Z" fill="white"/>
<path d="M91.5795 51.366C90.1011 56.86 84.4299 60.1203 78.9118 58.648C73.3942 57.1759 70.1199 51.5291 71.5984 46.0351C73.0768 40.5411 78.7481 37.2805 84.2658 38.7526C89.7838 40.2248 93.058 45.872 91.5795 51.366Z" fill="white"/>
<defs>
<filter id="filter0_d" x="0" y="0" width="133" height="127" filterUnits="userSpaceOnUse" color-interpolation-filters="sRGB">
<feFlood flood-opacity="0" result="BackgroundImageFix"/>
<feColorMatrix in="SourceAlpha" type="matrix" values="0 0 0 0 0 0 0 0 0 0 0 0 0 0 0 0 0 0 127 0"/>
<feOffset dy="4"/>
<feGaussianBlur stdDeviation="5"/>
<feColorMatrix type="matrix" values="0 0 0 0 0.899942 0 0 0 0 0.899942 0 0 0 0 0.899942 0 0 0 0.4 0"/>
<feBlend mode="normal" in2="BackgroundImageFix" result="effect1_dropShadow"/>
<feBlend mode="normal" in="SourceGraphic" in2="effect1_dropShadow" result="shape"/>
</filter>
</defs>
</svg>
