<svg width="30" height="32" viewBox="0 0 30 32" fill="none" xmlns="http://www.w3.org/2000/svg">
<g clip-path="url(#clip0)">
<path d="M15.3061 8.70694C11.1321 8.70694 7.76534 11.8001 7.76534 15.635C7.76534 19.4699 11.1321 22.5631 15.3061 22.5631C19.4801 22.5631 22.8468 19.4699 22.8468 15.635C22.8468 11.8001 19.4801 8.70694 15.3061 8.70694ZM15.3061 20.1391C12.6087 20.1391 10.4036 18.1192 10.4036 15.635C10.4036 13.1508 12.6022 11.1309 15.3061 11.1309C18.01 11.1309 20.2086 13.1508 20.2086 15.635C20.2086 18.1192 18.0034 20.1391 15.3061 20.1391ZM24.9142 8.42354C24.9142 9.32196 24.1266 10.0395 23.1553 10.0395C22.1774 10.0395 21.3964 9.31593 21.3964 8.42354C21.3964 7.53115 22.184 6.8076 23.1553 6.8076C24.1266 6.8076 24.9142 7.53115 24.9142 8.42354ZM29.9085 10.0636C29.7969 7.89896 29.2588 5.98154 27.5327 4.40177C25.8133 2.822 23.7263 2.32757 21.3702 2.21904C18.9419 2.09241 11.6637 2.09241 9.23542 2.21904C6.88591 2.32154 4.79892 2.81597 3.07288 4.39574C1.34684 5.97551 0.815247 7.89293 0.697115 10.0576C0.559295 12.2885 0.559295 18.9754 0.697115 21.2064C0.808684 23.371 1.34684 25.2885 3.07288 26.8682C4.79892 28.448 6.87935 28.9424 9.23542 29.051C11.6637 29.1776 18.9419 29.1776 21.3702 29.051C23.7263 28.9485 25.8133 28.454 27.5327 26.8682C29.2522 25.2885 29.7904 23.371 29.9085 21.2064C30.0463 18.9754 30.0463 12.2946 29.9085 10.0636ZM26.7714 23.6002C26.2595 24.782 25.2685 25.6924 23.9757 26.1688C22.0396 26.8743 17.4456 26.7115 15.3061 26.7115C13.1666 26.7115 8.56601 26.8682 6.63652 26.1688C5.3502 25.6985 4.3592 24.788 3.84074 23.6002C3.07288 21.8214 3.25008 17.6007 3.25008 15.635C3.25008 13.6693 3.07944 9.44255 3.84074 7.66984C4.35264 6.48803 5.34364 5.57755 6.63652 5.10121C8.57257 4.39574 13.1666 4.55854 15.3061 4.55854C17.4456 4.55854 22.0462 4.40177 23.9757 5.10121C25.262 5.57152 26.253 6.482 26.7714 7.66984C27.5393 9.44858 27.3621 13.6693 27.3621 15.635C27.3621 17.6007 27.5393 21.8274 26.7714 23.6002Z" fill="#3F3D56"/>
</g>
<defs>
<clipPath id="clip0">
<rect width="29.4017" height="30.8718" fill="white" transform="translate(0.598633 0.205078)"/>
</clipPath>
</defs>
</svg>
