<svg width="31" height="32" viewBox="0 0 31 32" fill="none" xmlns="http://www.w3.org/2000/svg">
<g clip-path="url(#clip0)">
<path d="M28.2751 2.13461H2.43691C1.25297 2.13461 0.291016 3.00891 0.291016 4.08219V27.1999C0.291016 28.2731 1.25297 29.1474 2.43691 29.1474H28.2751C29.4591 29.1474 30.4278 28.2731 30.4278 27.1999V4.08219C30.4278 3.00891 29.4591 2.13461 28.2751 2.13461ZM9.39931 25.2885H4.93261V12.3971H9.40604V25.2885H9.39931ZM7.16596 10.6364C5.73312 10.6364 4.57609 9.59329 4.57609 8.315C4.57609 7.03672 5.73312 5.99359 7.16596 5.99359C8.59208 5.99359 9.75584 7.03672 9.75584 8.315C9.75584 9.59932 8.5988 10.6364 7.16596 10.6364ZM26.1427 25.2885H21.676V19.0176C21.676 17.5223 21.6424 15.5988 19.3552 15.5988C17.0277 15.5988 16.6711 17.2268 16.6711 18.9091V25.2885H12.2045V12.3971H16.4895V14.1577H16.5501C17.1488 13.1447 18.6085 12.0775 20.7813 12.0775C25.3018 12.0775 26.1427 14.7486 26.1427 18.2217V25.2885Z" fill="#3F3D56"/>
</g>
<defs>
<clipPath id="clip0">
<rect width="30.1368" height="30.8718" fill="white" transform="translate(0.291016 0.205078)"/>
</clipPath>
</defs>
</svg>
