<svg width="103" height="107" viewBox="0 0 103 107" fill="none" xmlns="http://www.w3.org/2000/svg">
<path d="M98.9766 31.7656H79.2617C71.9185 31.773 64.682 33.5928 58.1485 37.0751C51.615 40.5574 45.9715 45.6024 41.6828 51.7947C35.5866 60.7093 32.5282 71.4822 32.9922 82.4067C29.5819 83.7944 20.1172 88.9672 20.1172 103.656C20.1172 104.1 20.2867 104.525 20.5886 104.838C20.8904 105.152 21.2997 105.328 21.7266 105.328C22.1534 105.328 22.5627 105.152 22.8646 104.838C23.1664 104.525 23.3359 104.1 23.3359 103.656C23.3359 89.2781 33.3994 85.7003 34.8237 85.2656H54.3164C66.5831 85.2497 78.3431 80.1805 87.017 71.1697C95.6909 62.159 100.571 49.9423 100.586 37.1992V33.4375C100.586 32.9941 100.416 32.5688 100.115 32.2553C99.8127 31.9418 99.4034 31.7656 98.9766 31.7656ZM71.9713 56.8103C60.9631 59.3516 44.7084 75.3681 38.3997 81.9219H36.2109V79.4642C42.7772 72.6095 59.3859 56.292 71.2631 53.5334C71.6814 53.4359 72.1199 53.515 72.4821 53.7532C72.8442 53.9915 73.1005 54.3695 73.1944 54.8041C73.2883 55.2386 73.2122 55.6941 72.9828 56.0703C72.7534 56.4466 72.3895 56.7128 71.9713 56.8103Z" fill="#B09AFD"/>
<path d="M69.5541 29.425C62.5927 24.4238 54.3312 21.7414 45.8673 21.7344H31.3829C30.9561 21.7344 30.5467 21.9105 30.2449 22.2241C29.9431 22.5376 29.7735 22.9628 29.7735 23.4063C29.7528 33.1765 32.9214 42.6654 38.7619 50.3234C46.0674 39.5141 57.0906 32.0328 69.5541 29.425Z" fill="#8C6DF7"/>
<path d="M48.1783 53.4417C55.7314 53.2469 62.9128 49.9961 68.1928 44.3819C73.4727 38.7676 76.4338 31.2336 76.4453 23.3847C76.4453 22.9413 76.2758 22.5161 75.9739 22.2025C75.6721 21.889 75.2628 21.7129 74.8359 21.7129C67.2804 21.7244 60.0278 24.8004 54.6233 30.2854C49.2188 35.7705 46.0897 43.2311 45.9026 51.0777L41.0391 56.1301V39.0686C51.8122 26.9809 51.6803 14.2346 40.5949 2.16863C40.2844 1.85049 39.8658 1.67212 39.4297 1.67212C38.9936 1.67212 38.575 1.85049 38.2645 2.16863C27.1791 14.2346 27.0455 26.9809 37.8203 39.0686V56.1301L32.9568 51.0777C32.7697 43.2311 29.6406 35.7705 24.2361 30.2854C18.8316 24.8004 11.579 21.7244 4.02344 21.7129C3.5966 21.7129 3.18725 21.889 2.88544 22.2025C2.58362 22.5161 2.41406 22.9413 2.41406 23.3847C2.42517 31.2337 5.38615 38.768 10.6662 44.3823C15.9462 49.9967 23.1278 53.2473 30.6811 53.4417L37.8203 60.8565V68.5237H32.9922C29.1521 68.5285 25.4707 70.1154 22.7554 72.9362C20.04 75.757 18.5125 79.5814 18.5078 83.5706C18.5078 84.014 18.6774 84.4392 18.9792 84.7528C19.281 85.0663 19.6904 85.2424 20.1172 85.2424H58.7422C59.169 85.2424 59.5784 85.0663 59.8802 84.7528C60.182 84.4392 60.3516 84.014 60.3516 83.5706C60.3473 79.5812 58.8199 75.7566 56.1045 72.9357C53.3891 70.1148 49.7074 68.5281 45.8672 68.5237H41.0391V60.8565L48.1783 53.4417ZM73.1735 25.1118C72.762 31.5931 70.0978 37.6985 65.6765 42.2915C61.2552 46.8844 55.3781 49.6522 49.139 50.0796C49.5505 43.5982 52.2147 37.4929 56.636 32.8999C61.0573 28.3069 66.9344 25.5392 73.1735 25.1118ZM5.68592 25.1118C11.925 25.5392 17.8021 28.3069 22.2234 32.8999C26.6446 37.4929 29.3089 43.5982 29.7203 50.0796C23.4812 49.6522 17.6042 46.8844 13.1829 42.2915C8.76161 37.6985 6.09733 31.5931 5.68592 25.1118ZM45.8672 71.8691C48.5754 71.8726 51.192 72.8879 53.2393 74.7295C55.2866 76.5712 56.628 79.1164 57.0185 81.9004H21.8408C22.2314 79.1164 23.5727 76.5712 25.62 74.7295C27.6673 72.8879 30.284 71.8726 32.9922 71.8691H45.8672ZM39.4297 35.9589C30.8437 25.824 30.8437 15.9298 39.4297 5.79493C48.0157 15.9298 48.0157 25.824 39.4297 35.9589Z" fill="#15273C"/>
</svg>
