<svg width="93" height="94" viewBox="0 0 93 94" fill="none" xmlns="http://www.w3.org/2000/svg">
<path d="M76.9027 24.894C70.7553 20.2408 63.301 17.6882 55.6213 17.6063C47.9415 17.5244 40.4357 19.9176 34.1925 24.4386C34.0204 24.5625 33.877 24.7228 33.7725 24.9083C33.6679 25.0939 33.6046 25.3003 33.5871 25.5131C33.5695 25.7259 33.5981 25.94 33.6707 26.1405C33.7434 26.341 33.8585 26.5231 34.0079 26.6741L39.2392 31.9616C39.4745 32.1994 39.7833 32.3483 40.1142 32.3836C40.445 32.4189 40.7779 32.3384 41.057 32.1555C45.3759 29.311 50.4343 27.8295 55.5887 27.8996C60.7431 27.9697 65.7603 29.5882 70.0018 32.5491C70.2816 32.7436 70.62 32.8329 70.9582 32.8015C71.2964 32.7701 71.613 32.62 71.8531 32.3772L77.0626 27.1118C77.2103 26.9626 77.3245 26.7831 77.3973 26.5854C77.4702 26.3876 77.5001 26.1763 77.4849 25.9659C77.4698 25.7554 77.4099 25.5507 77.3094 25.3658C77.209 25.1808 77.0703 25.0199 76.9027 24.894Z" fill="#B4A1F9"/>
<path d="M77.5876 40.6272C80.1282 44.8733 81.4396 49.7546 81.3728 54.7164C81.3061 59.6783 79.8637 64.5217 77.2097 68.6964C77.0292 68.9785 76.9497 69.3146 76.9846 69.6487C77.0195 69.9828 77.1667 70.2947 77.4016 70.5324L82.6328 75.8199C82.7821 75.9707 82.962 76.0869 83.1602 76.1604C83.3584 76.2338 83.57 76.2627 83.7803 76.2451C83.9907 76.2275 84.1947 76.1638 84.3782 76.0584C84.5618 75.953 84.7204 75.8084 84.843 75.6348C89.1289 69.5261 91.4672 62.2404 91.5451 54.752C91.623 47.2636 89.4368 39.9298 85.279 33.7314C85.1587 33.5526 85.0009 33.4029 84.8168 33.2929C84.6327 33.1828 84.4269 33.1152 84.214 33.0949C84.0011 33.0746 83.7863 33.102 83.5851 33.1752C83.3839 33.2484 83.2011 33.3656 83.0499 33.5184L77.8012 38.825C77.5709 39.0578 77.4247 39.3619 77.386 39.6887C77.3473 40.0155 77.4182 40.346 77.5876 40.6272Z" fill="#B4A1F9"/>
<path d="M76.4664 82.0506L71.2351 76.7631C71 76.5257 70.6914 76.3769 70.3608 76.3416C70.0303 76.3063 69.6978 76.3867 69.4187 76.5692C65.2884 79.2517 60.4965 80.7096 55.5874 80.7771C50.6784 80.8446 45.849 79.519 41.648 76.9511C41.3699 76.7799 41.0429 76.7082 40.7196 76.7473C40.3963 76.7865 40.0953 76.9343 39.8651 77.167L34.6149 82.4765C34.4637 82.6294 34.3478 82.8141 34.2753 83.0175C34.2029 83.2209 34.1758 83.4379 34.1959 83.6531C34.216 83.8683 34.2829 84.0764 34.3918 84.2625C34.5006 84.4486 34.6488 84.608 34.8256 84.7296C40.9581 88.9322 48.2139 91.1419 55.6226 91.0631C63.0313 90.9844 70.2396 88.621 76.2833 84.289C76.4558 84.165 76.5994 84.0045 76.7042 83.8186C76.8089 83.6327 76.8722 83.426 76.8896 83.2128C76.9071 82.9996 76.8782 82.7851 76.8051 82.5844C76.732 82.3836 76.6164 82.2014 76.4664 82.0506Z" fill="#B4A1F9"/>
<path d="M33.655 69.2841C30.7259 64.9968 29.1249 59.9257 29.0556 54.716C28.9862 49.5063 30.4517 44.3935 33.2656 40.0281C33.4389 39.7429 33.5141 39.4078 33.4794 39.0749C33.4447 38.7421 33.3021 38.4301 33.0737 38.1877L27.8425 32.9002C27.6931 32.7492 27.513 32.6329 27.3146 32.5594C27.1162 32.4859 26.9044 32.4571 26.6938 32.4748C26.4833 32.4926 26.2791 32.5565 26.0955 32.6622C25.9119 32.7679 25.7534 32.9128 25.6308 33.0867C21.1579 39.3971 18.7902 46.9836 18.8712 54.746C18.9522 62.5083 21.4776 70.0427 26.0813 76.2563C26.206 76.4252 26.3652 76.5651 26.5481 76.6664C26.7311 76.7677 26.9334 76.8279 27.1415 76.8431C27.3495 76.8583 27.5583 76.8281 27.7537 76.7544C27.9492 76.6808 28.1266 76.5655 28.2741 76.4163L33.4835 71.1509C33.7059 70.8992 33.8425 70.582 33.8734 70.246C33.9043 69.91 33.8277 69.5729 33.655 69.2841Z" fill="#B4A1F9"/>
<path d="M64.121 37.5077C61.5102 36.1018 58.609 35.336 55.6514 35.272C52.6938 35.2079 49.7628 35.8475 47.0948 37.1391C46.8859 37.241 46.7041 37.3921 46.5648 37.5795C46.4254 37.767 46.3325 37.9855 46.2938 38.2168C46.2551 38.448 46.2717 38.6852 46.3423 38.9086C46.4129 39.132 46.5354 39.3351 46.6996 39.5008L52.422 45.2847C52.5882 45.4529 52.7923 45.5778 53.0168 45.6487C53.2413 45.7195 53.4795 45.7343 53.7109 45.6916C54.9663 45.4599 56.257 45.5141 57.489 45.8502C57.7358 45.9181 57.996 45.919 58.2432 45.8527C58.4905 45.7864 58.716 45.6554 58.8971 45.4727L64.4669 39.843C64.6275 39.6806 64.7482 39.4824 64.8193 39.2643C64.8904 39.0463 64.9099 38.8144 64.8763 38.5873C64.8426 38.3602 64.7568 38.1442 64.6256 37.9567C64.4945 37.7693 64.3217 37.6155 64.121 37.5077Z" fill="#B4A1F9"/>
<path d="M63.8161 55.9022C63.7733 56.1365 63.7877 56.3778 63.8578 56.6053C63.9279 56.8327 64.0517 57.0396 64.2186 57.2079L69.941 62.9918C70.1053 63.1579 70.3065 63.2817 70.5279 63.3529C70.7493 63.4241 70.9844 63.4406 71.2134 63.4011C71.4424 63.3615 71.6587 63.267 71.8441 63.1255C72.0295 62.9841 72.1787 62.7997 72.2791 62.5879C73.4364 60.1485 74.0665 57.488 74.1276 54.7834C74.1888 52.0787 73.6795 49.3919 72.6336 46.9017C72.5406 46.6805 72.3952 46.4859 72.2104 46.3347C72.0256 46.1836 71.8069 46.0806 71.5735 46.0348C71.3401 45.9889 71.0992 46.0017 70.8718 46.0719C70.6444 46.1422 70.4376 46.2677 70.2694 46.4375L64.3305 52.4344C64.1776 52.5891 64.0609 52.7763 63.9887 52.9824C63.9166 53.1884 63.8909 53.4082 63.9134 53.6256C63.9907 54.3852 63.9579 55.1521 63.8161 55.9022Z" fill="#B4A1F9"/>
<path d="M46.8159 56.6347C46.4833 55.3894 46.4297 54.0848 46.6589 52.8159C46.7012 52.5821 46.6866 52.3414 46.6165 52.1144C46.5464 51.8875 46.4228 51.6812 46.2564 51.5132L40.534 45.7292C40.3689 45.5658 40.1678 45.4442 39.9473 45.3744C39.7267 45.3045 39.4929 45.2884 39.265 45.3274C39.0372 45.3663 38.8216 45.4593 38.6361 45.5985C38.4505 45.7378 38.3002 45.9195 38.1974 46.1287C36.9341 48.8018 36.3036 51.7352 36.3555 54.6971C36.4075 57.659 37.1405 60.568 38.4968 63.1941V63.2059C38.5928 63.4247 38.7394 63.617 38.9242 63.7667C39.1091 63.9163 39.3268 64.0189 39.5591 64.0659C39.7913 64.1128 40.0313 64.1027 40.2589 64.0363C40.4864 63.97 40.6949 63.8494 40.8668 63.6847L46.4366 58.055C46.6178 57.8728 46.7483 57.6456 46.8149 57.3963C46.8814 57.1469 46.8818 56.8842 46.8159 56.6347Z" fill="#B4A1F9"/>
<path d="M47.8561 71.9455C50.3199 73.0026 52.9782 73.5174 55.654 73.4556C58.3299 73.3938 60.9621 72.7569 63.3755 71.5871C63.5851 71.4857 63.7675 71.3349 63.9074 71.1475C64.0474 70.9601 64.1409 70.7415 64.1801 70.51C64.2192 70.2785 64.2028 70.0409 64.1324 69.8171C64.0619 69.5934 63.9394 69.3899 63.7751 69.2239L58.0527 63.44C57.8862 63.2713 57.6816 63.1462 57.4565 63.0753C57.2315 63.0044 56.9927 62.9899 56.7609 63.0331C56.0105 63.1754 55.244 63.211 54.4839 63.1389C54.271 63.1191 54.0565 63.147 53.8555 63.2206C53.6546 63.2942 53.4722 63.4118 53.3214 63.5648L47.3926 69.5558C47.2247 69.7261 47.1007 69.9355 47.0315 70.1655C46.9624 70.3956 46.9501 70.6393 46.9959 70.8752C47.0417 71.1112 47.144 71.3321 47.294 71.5187C47.444 71.7054 47.637 71.8519 47.8561 71.9455Z" fill="#B4A1F9"/>
<path d="M1.91612 38.5823C1.70305 38.7833 1.55471 39.0445 1.49039 39.3319C1.42608 39.6192 1.44875 39.9195 1.55546 40.1937C1.66217 40.4678 1.848 40.7032 2.08879 40.8693C2.32958 41.0353 2.61421 41.1243 2.9057 41.1247H8.17619C9.9753 48.5189 14.4213 54.9771 20.6556 59.252L13.39 74.2612C13.2817 74.4853 13.2316 74.7335 13.2445 74.9826C13.2573 75.2317 13.3328 75.4733 13.4636 75.6848C13.5944 75.8962 13.7764 76.0705 13.9923 76.1912C14.2083 76.3119 14.4511 76.3751 14.6978 76.3747H21.9634C22.2256 76.3747 22.4828 76.303 22.708 76.1673C22.9331 76.0315 23.1177 75.8368 23.2422 75.6036L29.6984 63.4982C35.035 65.0121 40.6825 64.9999 46.0127 63.4629L52.4936 75.6036C52.6175 75.8357 52.801 76.0297 53.0247 76.1654C53.2484 76.3011 53.5042 76.3734 53.7651 76.3747H61.0307C61.2776 76.3752 61.5207 76.3121 61.7368 76.1913C61.9529 76.0705 62.135 75.896 62.2659 75.6844C62.3967 75.4727 62.4721 75.2308 62.4848 74.9816C62.4975 74.7323 62.4472 74.4838 62.3385 74.2597L55.0351 59.1903C59.1145 56.3654 62.4532 52.5804 64.7636 48.1613C67.074 43.7422 68.2867 38.8216 68.2972 33.8234C68.3078 28.8253 67.1159 23.8995 64.8243 19.4704C62.5326 15.0414 59.2099 11.242 55.1425 8.39945C51.0751 5.55695 46.3848 3.75665 41.476 3.15365C36.5671 2.55066 31.5868 3.16306 26.9642 4.93809C22.3415 6.71311 18.2152 9.59754 14.9407 13.3428C11.6661 17.0881 9.34165 21.582 8.16747 26.4372H2.9057C2.61409 26.4373 2.32926 26.5261 2.08824 26.692C1.84722 26.8579 1.66117 27.0933 1.55427 27.3676C1.44738 27.6418 1.42459 27.9422 1.48886 28.2297C1.55314 28.5172 1.7015 28.7785 1.91467 28.9796L7.00787 33.7809L1.91612 38.5823ZM48.8244 62.5405L48.9015 62.5068C50.1222 62.0246 51.3101 61.4613 52.4573 60.8206C52.4907 60.8015 52.5256 60.7868 52.559 60.7678L58.7057 73.4372H54.6369L48.8244 62.5405ZM23.1332 60.8324C24.3458 61.4963 25.5973 62.0849 26.8808 62.5949L21.0916 73.4372H17.0228L23.1332 60.8324ZM11.1377 41.1247H13.2825C13.5139 41.1247 13.7419 41.0689 13.9477 40.9618C14.1534 40.8548 14.3309 40.6996 14.4653 40.5093L15.2195 39.443C16.5128 44.5119 19.4249 49.0078 23.5042 52.233C27.5835 55.4583 32.6018 57.2327 37.7807 57.2809C43.947 57.2809 49.8607 54.8051 54.2209 50.398C58.5812 45.9908 61.0307 40.0135 61.0307 33.7809C61.0307 27.5484 58.5812 21.571 54.2209 17.1639C49.8607 12.7568 43.947 10.281 37.7807 10.281C32.6018 10.3292 27.5835 12.1036 23.5042 15.3289C19.4249 18.5541 16.5128 23.05 15.2195 28.1189L14.4653 27.0526C14.3309 26.8622 14.1534 26.7071 13.9477 26.6C13.7419 26.493 13.5139 26.4372 13.2825 26.4372H11.1377C12.8926 19.91 16.9333 14.2492 22.5082 10.5076C28.0831 6.76607 34.8127 5.19843 41.4455 6.09626C48.0783 6.99408 54.1627 10.2963 58.5671 15.3887C62.9715 20.4811 65.3962 27.017 65.3901 33.7809C65.3901 55.5361 41.6213 69.0897 23.2785 57.5174C17.3236 53.8046 12.9845 47.9459 11.1377 41.1247ZM37.7807 33.7809C37.7807 33.3914 37.6276 33.0178 37.3551 32.7424C37.0826 32.4669 36.713 32.3122 36.3276 32.3122H32.176C32.5297 30.9277 33.3708 29.721 34.5417 28.9185C35.7126 28.116 37.1329 27.7726 38.5363 27.9528C39.9398 28.133 41.23 28.8243 42.1652 29.8972C43.1005 30.9702 43.6164 32.351 43.6164 33.7809C43.6164 35.2109 43.1005 36.5917 42.1652 37.6647C41.23 38.7376 39.9398 39.4289 38.5363 39.6091C37.1329 39.7893 35.7126 39.4459 34.5417 38.6434C33.3708 37.8409 32.5297 36.6342 32.176 35.2497H36.3276C36.713 35.2497 37.0826 35.095 37.3551 34.8195C37.6276 34.5441 37.7807 34.1705 37.7807 33.7809ZM29.1927 32.3122H24.7898C25.1612 28.9546 26.7904 25.8682 29.3428 23.6868C31.8953 21.5054 35.1772 20.3947 38.5146 20.5827C41.852 20.7707 44.9915 22.2431 47.2883 24.6976C49.5852 27.1522 50.865 30.4024 50.865 33.7809C50.865 37.1595 49.5852 40.4097 47.2883 42.8642C44.9915 45.3188 41.852 46.7912 38.5146 46.9792C35.1772 47.1672 31.8953 46.0564 29.3428 43.8751C26.7904 41.6937 25.1612 38.6073 24.7898 35.2497H29.1942C29.5585 37.4284 30.7194 39.3893 32.4467 40.7438C34.174 42.0982 36.3416 42.7474 38.5201 42.5626C40.6986 42.3778 42.7289 41.3726 44.2087 39.7461C45.6885 38.1196 46.5097 35.9906 46.5097 33.7809C46.5097 31.5713 45.6885 29.4423 44.2087 27.8158C42.7289 26.1893 40.6986 25.1841 38.5201 24.9993C36.3416 24.8145 34.174 25.4637 32.4467 26.8181C30.7194 28.1726 29.5585 30.1335 29.1942 32.3122H29.1927ZM21.8704 32.3122H18.1853L17.5881 31.4677C18.1727 26.248 20.7116 21.4525 24.6837 18.0651C28.6559 14.6776 33.76 12.9552 38.9488 13.2511C44.1377 13.5471 49.0177 15.839 52.5876 19.6566C56.1574 23.4742 58.1464 28.528 58.1464 33.7809C58.1464 39.0339 56.1574 44.0877 52.5876 47.9053C49.0177 51.7229 44.1377 54.0148 38.9488 54.3108C33.76 54.6067 28.6559 52.8843 24.6837 49.4968C20.7116 46.1094 18.1727 41.3138 17.5881 36.0942L18.1853 35.2497H21.8719C22.2458 39.3901 24.1846 43.2254 27.2848 45.9579C30.3851 48.6904 34.4082 50.1096 38.5174 49.9205C42.6265 49.7313 46.5053 47.9482 49.347 44.9422C52.1887 41.9362 53.7744 37.9386 53.7744 33.7809C53.7744 29.6233 52.1887 25.6257 49.347 22.6197C46.5053 19.6137 42.6265 17.8306 38.5174 17.6414C34.4082 17.4523 30.3851 18.8715 27.2848 21.604C24.1846 24.3365 22.2458 28.1718 21.8719 32.3122H21.8704ZM6.59519 38.1872L10.1292 34.8575C10.2758 34.7201 10.3927 34.5535 10.4726 34.3682C10.5526 34.183 10.5939 33.9831 10.5939 33.7809C10.5939 33.5788 10.5526 33.3789 10.4726 33.1937C10.3927 33.0084 10.2758 32.8418 10.1292 32.7044L6.59519 29.3747H12.5341L15.6496 33.7809L12.5341 38.1872H6.59519Z" fill="#15273C"/>
</svg>
