<svg width="304" height="292" viewBox="0 0 304 292" fill="none" xmlns="http://www.w3.org/2000/svg">
<path d="M98.9121 229.093L103.434 231.848" stroke="#29DE92" stroke-width="2"/>
<path d="M98.5176 219.567L111.285 227.347" stroke="#29DE92" stroke-width="2"/>
<path d="M99.2334 210.006L119.981 222.648" stroke="#29DE92" stroke-width="2"/>
<path d="M98.7559 199.715L128.946 218.111" stroke="#29DE92" stroke-width="2"/>
<path d="M99.4756 190.156L137.114 213.09" stroke="#29DE92" stroke-width="2"/>
<path d="M99.9248 178.644L147.538 207.656" stroke="#29DE92" stroke-width="2"/>
<path d="M100.002 167.443L157.324 202.37" stroke="#29DE92" stroke-width="2"/>
<path d="M100.264 155.64L167.693 196.726" stroke="#29DE92" stroke-width="2"/>
<path d="M100.524 143.836L178.194 191.163" stroke="#29DE92" stroke-width="2"/>
<path d="M100.788 132.032L188.433 185.437" stroke="#29DE92" stroke-width="2"/>
<path d="M101.049 120.229L198.934 179.873" stroke="#29DE92" stroke-width="2"/>
<path d="M101.312 108.426L209.305 174.229" stroke="#29DE92" stroke-width="2"/>
<path d="M100.643 96.0549L219.941 168.747" stroke="#29DE92" stroke-width="2"/>
<path d="M101.569 84.6565L230.31 163.102" stroke="#29DE92" stroke-width="2"/>
<path d="M101.032 72.3669L241.078 157.701" stroke="#29DE92" stroke-width="2"/>
<path d="M101.429 60.6445L251.316 151.976" stroke="#29DE92" stroke-width="2"/>
<path d="M101.956 49.0029L261.552 146.25" stroke="#29DE92" stroke-width="2"/>
<path d="M102.086 37.1191L271.79 140.525" stroke="#29DE92" stroke-width="2"/>
<path d="M102.348 25.3154L282.425 135.042" stroke="#29DE92" stroke-width="2"/>
<path d="M103.008 13.7554L293.06 129.56" stroke="#29DE92" stroke-width="2"/>
<path d="M103.004 1.78906L303.297 123.834" stroke="#29DE92" stroke-width="2"/>
</svg>
