<svg width="340" height="335" viewBox="0 0 340 335" fill="none" xmlns="http://www.w3.org/2000/svg">
<path d="M239.082 254.344L243.526 250.626" stroke="#8C6DF7" stroke-width="4"/>
<path d="M228.954 251.261L241.502 240.764" stroke="#8C6DF7" stroke-width="4"/>
<path d="M219.17 247L239.56 229.944" stroke="#8C6DF7" stroke-width="4"/>
<path d="M208.208 243.726L237.878 218.906" stroke="#8C6DF7" stroke-width="4"/>
<path d="M198.425 239.465L235.415 208.523" stroke="#8C6DF7" stroke-width="4"/>
<path d="M186.501 234.772L233.294 195.63" stroke="#8C6DF7" stroke-width="4"/>
<path d="M174.774 230.581L231.109 183.457" stroke="#8C6DF7" stroke-width="4"/>
<path d="M162.479 225.976L228.747 170.543" stroke="#8C6DF7" stroke-width="4"/>
<path d="M150.187 221.37L226.519 157.517" stroke="#8C6DF7" stroke-width="4"/>
<path d="M137.891 216.767L224.026 144.715" stroke="#8C6DF7" stroke-width="4"/>
<path d="M125.598 212.162L221.797 131.691" stroke="#8C6DF7" stroke-width="4"/>
<path d="M113.302 207.559L219.435 118.778" stroke="#8C6DF7" stroke-width="4"/>
<path d="M100.094 203.718L217.337 105.643" stroke="#8C6DF7" stroke-width="4"/>
<path d="M88.4541 198.564L214.978 92.7272" stroke="#8C6DF7" stroke-width="4"/>
<path d="M75.376 194.617L213.009 79.4864" stroke="#8C6DF7" stroke-width="4"/>
<path d="M63.2109 189.902L210.517 66.6807" stroke="#8C6DF7" stroke-width="4"/>
<path d="M51.1777 185.08L208.025 53.8769" stroke="#8C6DF7" stroke-width="4"/>
<path d="M38.7539 180.584L205.535 41.0717" stroke="#8C6DF7" stroke-width="4"/>
<path d="M26.46 175.979L203.436 27.9376" stroke="#8C6DF7" stroke-width="4"/>
<path d="M14.5566 171.046L201.336 14.8048" stroke="#8C6DF7" stroke-width="4"/>
<path d="M2 166.66L198.843 2.00018" stroke="#8C6DF7" stroke-width="4"/>
</svg>
