<svg width="247" height="256" viewBox="0 0 247 256" fill="none" xmlns="http://www.w3.org/2000/svg">
<path d="M198.14 87.1363L195.915 83.2837" stroke="#29DE92" stroke-width="3"/>
<path d="M194.473 94.3905L188.192 83.5127" stroke="#29DE92" stroke-width="3"/>
<path d="M189.958 101.227L179.752 83.5504" stroke="#29DE92" stroke-width="3"/>
<path d="M186.034 109.083L171.184 83.3617" stroke="#29DE92" stroke-width="3"/>
<path d="M181.52 115.919L163.006 83.8519" stroke="#29DE92" stroke-width="3"/>
<path d="M176.396 124.316L152.976 83.7508" stroke="#29DE92" stroke-width="3"/>
<path d="M171.679 132.63L143.483 83.7929" stroke="#29DE92" stroke-width="3"/>
<path d="M166.573 141.319L133.405 83.8706" stroke="#29DE92" stroke-width="3"/>
<path d="M161.468 150.008L123.262 83.8341" stroke="#29DE92" stroke-width="3"/>
<path d="M156.36 158.697L113.248 84.0251" stroke="#29DE92" stroke-width="3"/>
<path d="M151.256 167.386L103.107 83.9895" stroke="#29DE92" stroke-width="3"/>
<path d="M146.149 176.075L93.0283 84.0665" stroke="#29DE92" stroke-width="3"/>
<path d="M141.502 185.557L82.8201 83.9172" stroke="#29DE92" stroke-width="3"/>
<path d="M136.068 193.679L72.7417 83.9943" stroke="#29DE92" stroke-width="3"/>
<path d="M131.354 203.048L62.4671 83.7319" stroke="#29DE92" stroke-width="3"/>
<path d="M126.184 211.624L52.4551 83.9228" stroke="#29DE92" stroke-width="3"/>
<path d="M120.947 220.086L42.4431 84.1132" stroke="#29DE92" stroke-width="3"/>
<path d="M115.906 228.888L32.4302 84.3034" stroke="#29DE92" stroke-width="3"/>
<path d="M110.801 237.578L22.2219 84.1544" stroke="#29DE92" stroke-width="3"/>
<path d="M105.499 245.926L12.0137 84.0049" stroke="#29DE92" stroke-width="3"/>
<path d="M100.523 254.842L2.00074 84.1959" stroke="#29DE92" stroke-width="3"/>
</svg>
