<svg width="294" height="294" viewBox="0 0 294 294" fill="none" xmlns="http://www.w3.org/2000/svg">
<g opacity="0.8">
<path d="M77.041 213.577L80.5952 217.131" stroke="white" stroke-width="3"/>
<path d="M78.9229 204.587L88.9581 214.622" stroke="white" stroke-width="3"/>
<path d="M81.8496 195.806L98.1569 212.113" stroke="white" stroke-width="3"/>
<path d="M83.835 186.084L107.564 209.814" stroke="white" stroke-width="3"/>
<path d="M86.7637 177.304L116.347 206.887" stroke="white" stroke-width="3"/>
<path d="M89.8994 166.641L127.323 204.064" stroke="white" stroke-width="3"/>
<path d="M92.6162 156.188L137.67 201.242" stroke="white" stroke-width="3"/>
<path d="M95.6475 145.212L148.646 198.21" stroke="white" stroke-width="3"/>
<path d="M98.6787 134.236L159.727 195.284" stroke="white" stroke-width="3"/>
<path d="M101.712 123.259L170.6 192.147" stroke="white" stroke-width="3"/>
<path d="M104.742 112.283L181.679 189.22" stroke="white" stroke-width="3"/>
<path d="M107.774 101.307L192.656 186.189" stroke="white" stroke-width="3"/>
<path d="M110.073 89.5995L203.84 183.367" stroke="white" stroke-width="3"/>
<path d="M113.629 79.1461L214.818 180.335" stroke="white" stroke-width="3"/>
<path d="M116.033 67.5427L226.108 177.617" stroke="white" stroke-width="3"/>
<path d="M119.168 56.671L236.978 174.481" stroke="white" stroke-width="3"/>
<path d="M122.408 45.9043L247.849 171.345" stroke="white" stroke-width="3"/>
<path d="M125.336 34.8241L258.721 168.209" stroke="white" stroke-width="3"/>
<path d="M128.368 23.8477L269.907 165.387" stroke="white" stroke-width="3"/>
<path d="M131.712 13.1855L281.091 162.565" stroke="white" stroke-width="3"/>
<path d="M134.536 1.99988L291.964 159.428" stroke="white" stroke-width="3"/>
</g>
</svg>
