<svg width="31" height="32" viewBox="0 0 31 32" fill="none" xmlns="http://www.w3.org/2000/svg">
<g clip-path="url(#clip0)">
<path d="M27.0972 9.36575C27.1159 9.64651 27.1159 9.92733 27.1159 10.2081C27.1159 18.7716 21.0527 28.6387 9.9711 28.6387C6.55706 28.6387 3.38558 27.5757 0.717773 25.7307C1.20284 25.7909 1.66919 25.8109 2.17293 25.8109C4.98992 25.8109 7.58313 24.7882 9.65394 23.0434C7.0048 22.9832 4.78474 21.1181 4.01984 18.551C4.39299 18.6111 4.76608 18.6512 5.15789 18.6512C5.69889 18.6512 6.23995 18.571 6.74363 18.4307C3.98257 17.829 1.9117 15.2218 1.9117 12.0732V11.993C2.71387 12.4743 3.64675 12.7752 4.63544 12.8152C3.01237 11.652 1.94903 9.66657 1.94903 7.42039C1.94903 6.21711 2.24747 5.11408 2.76986 4.15143C5.73616 8.08222 10.1949 10.6492 15.1947 10.93C15.1014 10.4487 15.0454 9.94739 15.0454 9.446C15.0454 5.87616 17.7319 2.96821 21.0713 2.96821C22.8063 2.96821 24.3733 3.75035 25.4741 5.01382C26.8359 4.73307 28.1418 4.19155 29.2985 3.44953C28.8507 4.9537 27.8993 6.21717 26.6494 7.01931C27.862 6.879 29.0374 6.51793 30.1194 6.0166C29.2986 7.30007 28.2725 8.44317 27.0972 9.36575Z" fill="#3F3D56"/>
</g>
<defs>
<clipPath id="clip0">
<rect width="29.4017" height="31.6068" fill="white" transform="translate(0.717773)"/>
</clipPath>
</defs>
</svg>
