<svg width="96" height="96" viewBox="0 0 96 96" fill="none" xmlns="http://www.w3.org/2000/svg">
<path d="M85.3346 68.2277C86.4306 65.1014 86.9934 61.8131 86.9996 58.5002C86.9854 52.9358 85.4275 47.4846 82.4994 42.7529C79.5712 38.0213 75.3876 34.195 70.4141 31.6997C70.098 28.3609 68.548 25.2599 66.0673 23.003C63.5866 20.7461 60.3534 19.4954 56.9996 19.4954C53.6458 19.4954 50.4126 20.7461 47.9319 23.003C45.4511 25.2599 43.9012 28.3609 43.5851 31.6997C38.6117 34.1951 34.4282 38.0215 31.5001 42.7531C28.5719 47.4847 27.014 52.9359 26.9996 58.5002C27.0058 61.8135 27.5686 65.1023 28.6646 68.2292C26.5279 68.9526 24.6067 70.2002 23.0767 71.8579C21.5467 73.5156 20.4567 75.5305 19.9065 77.7182C19.3563 79.906 19.3634 82.1967 19.9272 84.381C20.4909 86.5653 21.5934 88.5733 23.1336 90.2215C24.6739 91.8697 26.6028 93.1054 28.744 93.8155C30.8851 94.5257 33.1702 94.6877 35.3901 94.2867C37.61 93.8856 39.694 92.9344 41.4513 91.52C43.2087 90.1056 44.5833 88.2731 45.4496 86.1902C49.1093 87.7155 53.0348 88.5008 56.9996 88.5008C60.9644 88.5008 64.8899 87.7155 68.5496 86.1902C69.4146 88.2764 70.7891 90.1122 72.5473 91.5297C74.3055 92.9471 76.3912 93.9008 78.6134 94.3034C80.8356 94.7061 83.1233 94.5448 85.2671 93.8343C87.4108 93.1239 89.3421 91.887 90.884 90.2369C92.4259 88.5868 93.5292 86.5762 94.0929 84.3893C94.6566 82.2024 94.6627 79.909 94.1105 77.7191C93.5584 75.5293 92.4657 73.5129 90.9325 71.8547C89.3993 70.1965 87.4746 68.9494 85.3346 68.2277ZM82.4216 67.5722H82.4066C81.9391 67.5244 81.4695 67.5003 80.9996 67.5002C77.4204 67.5042 73.9889 68.9277 71.458 71.4586C68.9272 73.9895 67.5036 77.421 67.4996 81.0002C67.5161 81.7671 67.5818 82.5322 67.6961 83.2907C64.3167 84.7417 60.6774 85.49 56.9996 85.49C53.3218 85.49 49.6825 84.7417 46.3031 83.2907C46.4176 82.5322 46.4832 81.7671 46.4996 81.0002C46.4956 77.421 45.072 73.9895 42.5412 71.4586C40.0103 68.9277 36.5788 67.5042 32.9996 67.5002C32.5292 67.4998 32.0591 67.5233 31.5911 67.5707H31.5776C30.5287 64.6618 29.9948 61.5924 29.9996 58.5002C30.0097 53.7346 31.2771 49.056 33.6738 44.9369C36.0704 40.8178 39.5115 37.404 43.6496 35.0402C44.1365 38.2307 45.7503 41.1413 48.1986 43.2443C50.6469 45.3473 53.7676 46.5036 56.9951 46.5036C60.2226 46.5036 63.3433 45.3473 65.7916 43.2443C68.2399 41.1413 69.8537 38.2307 70.3406 35.0402C74.4803 37.4028 77.9233 40.8161 80.3215 44.9353C82.7198 49.0545 83.9886 53.7337 83.9996 58.5002C84.0046 61.5929 83.4706 64.6628 82.4216 67.5722Z" fill="#B4A1F9"/>
<path d="M31.4155 28.005C31.2578 27.6396 30.9613 27.3518 30.5914 27.205C30.2215 27.0582 29.8084 27.0643 29.443 27.222C29.0776 27.3798 28.7898 27.6762 28.643 28.0461C28.4961 28.416 28.5023 28.8291 28.66 29.1945C29.5201 31.1756 30.9293 32.8692 32.721 34.0752C34.5128 35.2811 36.6123 35.949 38.7715 36H39.265C41.4181 35.9434 43.5102 35.2728 45.295 34.0671C47.0797 32.8614 48.4828 31.1708 49.339 29.1945C49.4968 28.8291 49.5029 28.416 49.356 28.0461C49.2092 27.6762 48.9214 27.3798 48.556 27.222C48.1906 27.0643 47.7775 27.0582 47.4076 27.205C47.0377 27.3518 46.7412 27.6396 46.5835 28.005C45.96 29.4502 44.9373 30.6876 43.6355 31.5723C42.3338 32.457 40.8067 32.9523 39.2335 33H38.812C37.2311 32.9597 35.6947 32.4681 34.3841 31.583C33.0735 30.6979 32.0434 29.4564 31.4155 28.005Z" fill="#3F3D56"/>
<path d="M63.342 31.2945C65.4142 30.2521 67.2304 28.7644 68.6605 26.938C70.0906 25.1116 71.0992 22.9916 71.6141 20.7298C72.1291 18.468 72.1376 16.1203 71.6391 13.8548C71.1406 11.5894 70.1475 9.4621 68.7307 7.62533C67.3139 5.78857 65.5086 4.28773 63.444 3.23027C61.3794 2.1728 59.1065 1.58486 56.7881 1.50852C54.4697 1.43219 52.163 1.86935 50.0333 2.78872C47.9036 3.70809 46.0035 5.08693 44.469 6.82652C40.9025 5.75328 37.099 5.75328 33.5325 6.82652C31.9974 5.08757 30.0968 3.70953 27.9669 2.79104C25.8369 1.87256 23.5302 1.43635 21.2119 1.51365C18.8936 1.59095 16.6211 2.17985 14.557 3.23818C12.4929 4.29652 10.6884 5.7981 9.27252 7.63545C7.85668 9.47279 6.86456 11.6004 6.36721 13.8661C5.86985 16.1317 5.87956 18.4793 6.39563 20.7407C6.9117 23.0022 7.92137 25.1215 9.35236 26.9471C10.7833 28.7727 12.6003 30.2593 14.673 31.3005C10.8103 32.744 7.47978 35.3314 5.12605 38.7173C2.77231 42.1031 1.50735 46.1264 1.5 50.25V60C1.5 60.3979 1.65804 60.7794 1.93934 61.0607C2.22064 61.342 2.60218 61.5 3 61.5H13.899C13.6353 62.9856 13.5018 64.4913 13.5 66V75C13.5 75.3979 13.658 75.7794 13.9393 76.0607C14.2206 76.342 14.6022 76.5 15 76.5H63C63.3978 76.5 63.7793 76.342 64.0606 76.0607C64.342 75.7794 64.5 75.3979 64.5 75V66C64.4982 64.4913 64.3647 62.9856 64.101 61.5H75C75.3978 61.5 75.7793 61.342 76.0606 61.0607C76.342 60.7794 76.5 60.3979 76.5 60V50.25C76.508 46.1241 75.2509 42.095 72.8982 38.7057C70.5454 35.3163 67.2102 32.7297 63.342 31.2945ZM56.25 4.50002C59.5623 4.50437 62.743 5.79761 65.1185 8.10594C67.4941 10.4143 68.8781 13.5565 68.9775 16.8673C69.0769 20.1782 67.8839 23.3978 65.6512 25.8445C63.4184 28.2912 60.3211 29.7729 57.015 29.976C57.4897 28.2741 57.7369 26.5168 57.75 24.75C57.7289 21.2851 56.7582 17.8923 54.9434 14.9406C53.1287 11.9889 50.5393 9.59132 47.457 8.00852C49.8249 5.74736 52.9759 4.4901 56.25 4.50002ZM44.436 9.95852C47.8981 11.2242 50.8065 13.6642 52.6549 16.8535C54.5033 20.0428 55.1744 23.7794 54.5515 27.4125C53.9286 31.0457 52.051 34.3453 49.2458 36.7367C46.4406 39.1282 42.8855 40.4599 39.1995 40.5C38.982 40.5 38.883 40.5 38.631 40.5C34.9655 40.4117 31.4454 39.0479 28.6772 36.6436C25.9089 34.2393 24.0656 30.945 23.4648 27.3279C22.864 23.7109 23.5432 19.9976 25.3855 16.8274C27.2278 13.6572 30.1179 11.2287 33.558 9.96002C37.0724 8.68825 40.9212 8.68772 44.436 9.95852ZM9 17.25C8.99831 14.7541 9.72925 12.3125 11.1022 10.2281C12.4751 8.14362 14.4297 6.50801 16.7235 5.52401C19.0173 4.54001 21.5495 4.25091 24.0061 4.69256C26.4626 5.13421 28.7356 6.28719 30.543 8.00852C27.4594 9.58973 24.869 11.987 23.054 14.939C21.239 17.8911 20.2691 21.2847 20.25 24.75C20.2634 26.5168 20.5106 28.2741 20.985 29.976C17.7432 29.7776 14.699 28.3509 12.4723 25.9865C10.2456 23.6221 9.00385 20.4979 9 17.25ZM4.5 50.25C4.50729 47.9521 4.97208 45.6787 5.86725 43.5623C6.76241 41.4459 8.07004 39.529 9.71385 37.9233C11.3577 36.3176 13.3048 35.0553 15.4415 34.21C17.5783 33.3647 19.8621 32.9534 22.1595 33C24.0746 36.8428 27.231 39.9263 31.1175 41.751C27.2308 43.0249 23.7051 45.2098 20.8346 48.1234C17.9641 51.037 15.8319 54.5948 14.616 58.5H4.5V50.25ZM61.5 73.5H16.5V66C16.5 52.1685 28.896 42.687 39.384 43.515C45.2862 43.6026 50.9164 46.0113 55.0556 50.2196C59.1949 54.4279 61.5101 60.0972 61.5 66V73.5ZM73.5 58.5H63.3825C62.1675 54.5975 60.0386 51.0413 57.1727 48.1271C54.3068 45.213 50.7867 43.025 46.905 41.745C50.7769 39.9102 53.9227 36.8315 55.8405 33C58.1404 32.9438 60.4284 33.3485 62.5695 34.1903C64.7106 35.0321 66.6615 36.294 68.3073 37.9016C69.9531 39.5092 71.2604 41.43 72.1522 43.5508C73.044 45.6716 73.5023 47.9494 73.5 50.25V58.5Z" fill="#15273C"/>
</svg>
